<mxfile host="app.diagrams.net" modified="2024-05-27T14:16:03.083Z" agent="Mozilla/5.0 (Windows NT 10.0; Win64; x64) AppleWebKit/537.36 (KHTML, like Gecko) Chrome/121.0.0.0 Safari/537.36" etag="YoMwychIjl6nI6JQU3X_" version="24.4.9" type="device" pages="4">
  <diagram name="Página-1" id="ZiPFj5SrXCE3NFDfiWm8">
    <mxGraphModel dx="1434" dy="782" grid="1" gridSize="10" guides="1" tooltips="1" connect="1" arrows="1" fold="1" page="1" pageScale="1" pageWidth="827" pageHeight="1169" math="0" shadow="0">
      <root>
        <mxCell id="0" />
        <mxCell id="1" parent="0" />
        <mxCell id="DqxcN8GwO106yfGj2cxF-53" value="" style="edgeStyle=orthogonalEdgeStyle;rounded=0;orthogonalLoop=1;jettySize=auto;html=1;" parent="1" source="DqxcN8GwO106yfGj2cxF-1" target="DqxcN8GwO106yfGj2cxF-51" edge="1">
          <mxGeometry relative="1" as="geometry" />
        </mxCell>
        <mxCell id="DqxcN8GwO106yfGj2cxF-1" value="Início" style="ellipse;whiteSpace=wrap;html=1;" parent="1" vertex="1">
          <mxGeometry x="50" y="20" width="110" height="60" as="geometry" />
        </mxCell>
        <mxCell id="DqxcN8GwO106yfGj2cxF-59" value="" style="edgeStyle=orthogonalEdgeStyle;rounded=0;orthogonalLoop=1;jettySize=auto;html=1;" parent="1" source="DqxcN8GwO106yfGj2cxF-7" target="DqxcN8GwO106yfGj2cxF-58" edge="1">
          <mxGeometry relative="1" as="geometry" />
        </mxCell>
        <mxCell id="DqxcN8GwO106yfGj2cxF-7" value="cadastrar cliente" style="rounded=0;whiteSpace=wrap;html=1;" parent="1" vertex="1">
          <mxGeometry x="50" y="230" width="115" height="50" as="geometry" />
        </mxCell>
        <mxCell id="DqxcN8GwO106yfGj2cxF-65" value="" style="edgeStyle=orthogonalEdgeStyle;rounded=0;orthogonalLoop=1;jettySize=auto;html=1;" parent="1" source="DqxcN8GwO106yfGj2cxF-20" target="DqxcN8GwO106yfGj2cxF-63" edge="1">
          <mxGeometry relative="1" as="geometry" />
        </mxCell>
        <mxCell id="DqxcN8GwO106yfGj2cxF-20" value="buscar cliente" style="rounded=0;whiteSpace=wrap;html=1;" parent="1" vertex="1">
          <mxGeometry x="220" y="125" width="112.5" height="50" as="geometry" />
        </mxCell>
        <mxCell id="DqxcN8GwO106yfGj2cxF-47" value="cadastro realizado" style="rounded=0;whiteSpace=wrap;html=1;" parent="1" vertex="1">
          <mxGeometry x="51.88" y="430" width="111.25" height="50" as="geometry" />
        </mxCell>
        <mxCell id="DqxcN8GwO106yfGj2cxF-55" value="sim" style="edgeStyle=orthogonalEdgeStyle;rounded=0;orthogonalLoop=1;jettySize=auto;html=1;" parent="1" source="DqxcN8GwO106yfGj2cxF-51" target="DqxcN8GwO106yfGj2cxF-20" edge="1">
          <mxGeometry relative="1" as="geometry" />
        </mxCell>
        <mxCell id="DqxcN8GwO106yfGj2cxF-57" value="não" style="edgeStyle=orthogonalEdgeStyle;rounded=0;orthogonalLoop=1;jettySize=auto;html=1;" parent="1" source="DqxcN8GwO106yfGj2cxF-51" edge="1">
          <mxGeometry relative="1" as="geometry">
            <mxPoint x="105.5" y="230" as="targetPoint" />
          </mxGeometry>
        </mxCell>
        <mxCell id="DqxcN8GwO106yfGj2cxF-51" value="cliente cadastrado" style="rhombus;whiteSpace=wrap;html=1;" parent="1" vertex="1">
          <mxGeometry x="65" y="110" width="80" height="80" as="geometry" />
        </mxCell>
        <mxCell id="DqxcN8GwO106yfGj2cxF-61" value="não" style="edgeStyle=orthogonalEdgeStyle;rounded=0;orthogonalLoop=1;jettySize=auto;html=1;" parent="1" source="DqxcN8GwO106yfGj2cxF-58" target="DqxcN8GwO106yfGj2cxF-60" edge="1">
          <mxGeometry relative="1" as="geometry" />
        </mxCell>
        <mxCell id="DqxcN8GwO106yfGj2cxF-64" value="sim" style="edgeStyle=orthogonalEdgeStyle;rounded=0;orthogonalLoop=1;jettySize=auto;html=1;" parent="1" source="DqxcN8GwO106yfGj2cxF-58" target="DqxcN8GwO106yfGj2cxF-47" edge="1">
          <mxGeometry relative="1" as="geometry" />
        </mxCell>
        <mxCell id="DqxcN8GwO106yfGj2cxF-58" value="dados válidos?" style="rhombus;whiteSpace=wrap;html=1;" parent="1" vertex="1">
          <mxGeometry x="67.5" y="320" width="80" height="80" as="geometry" />
        </mxCell>
        <mxCell id="DqxcN8GwO106yfGj2cxF-62" style="edgeStyle=orthogonalEdgeStyle;rounded=0;orthogonalLoop=1;jettySize=auto;html=1;entryX=1;entryY=0.5;entryDx=0;entryDy=0;" parent="1" source="DqxcN8GwO106yfGj2cxF-60" target="DqxcN8GwO106yfGj2cxF-7" edge="1">
          <mxGeometry relative="1" as="geometry">
            <mxPoint x="245" y="250" as="targetPoint" />
            <Array as="points">
              <mxPoint x="246" y="255" />
            </Array>
          </mxGeometry>
        </mxCell>
        <mxCell id="DqxcN8GwO106yfGj2cxF-60" value="mostrar erro&amp;nbsp;" style="rounded=0;whiteSpace=wrap;html=1;" parent="1" vertex="1">
          <mxGeometry x="190" y="335" width="110" height="50" as="geometry" />
        </mxCell>
        <mxCell id="DqxcN8GwO106yfGj2cxF-67" value="não" style="edgeStyle=orthogonalEdgeStyle;rounded=0;orthogonalLoop=1;jettySize=auto;html=1;entryX=0.5;entryY=0;entryDx=0;entryDy=0;" parent="1" source="DqxcN8GwO106yfGj2cxF-63" target="DqxcN8GwO106yfGj2cxF-20" edge="1">
          <mxGeometry relative="1" as="geometry">
            <Array as="points">
              <mxPoint x="414" y="90" />
              <mxPoint x="276" y="90" />
            </Array>
          </mxGeometry>
        </mxCell>
        <mxCell id="DqxcN8GwO106yfGj2cxF-70" value="sim" style="edgeStyle=orthogonalEdgeStyle;rounded=0;orthogonalLoop=1;jettySize=auto;html=1;" parent="1" source="DqxcN8GwO106yfGj2cxF-63" target="DqxcN8GwO106yfGj2cxF-69" edge="1">
          <mxGeometry relative="1" as="geometry" />
        </mxCell>
        <mxCell id="DqxcN8GwO106yfGj2cxF-63" value="cliente encontrado" style="rhombus;whiteSpace=wrap;html=1;" parent="1" vertex="1">
          <mxGeometry x="373.5" y="110" width="80" height="80" as="geometry" />
        </mxCell>
        <mxCell id="DqxcN8GwO106yfGj2cxF-68" style="edgeStyle=orthogonalEdgeStyle;rounded=0;orthogonalLoop=1;jettySize=auto;html=1;entryX=0;entryY=0.5;entryDx=0;entryDy=0;" parent="1" source="DqxcN8GwO106yfGj2cxF-47" target="DqxcN8GwO106yfGj2cxF-51" edge="1">
          <mxGeometry relative="1" as="geometry">
            <mxPoint x="60" y="150" as="targetPoint" />
            <Array as="points">
              <mxPoint x="20" y="455" />
              <mxPoint x="20" y="150" />
            </Array>
          </mxGeometry>
        </mxCell>
        <mxCell id="DqxcN8GwO106yfGj2cxF-74" value="não" style="edgeStyle=orthogonalEdgeStyle;rounded=0;orthogonalLoop=1;jettySize=auto;html=1;" parent="1" source="DqxcN8GwO106yfGj2cxF-69" target="DqxcN8GwO106yfGj2cxF-73" edge="1">
          <mxGeometry relative="1" as="geometry" />
        </mxCell>
        <mxCell id="I3Eb_-N1sQP1QvbI4rdD-4" value="sim" style="edgeStyle=orthogonalEdgeStyle;rounded=0;orthogonalLoop=1;jettySize=auto;html=1;" edge="1" parent="1" source="DqxcN8GwO106yfGj2cxF-69" target="I3Eb_-N1sQP1QvbI4rdD-3">
          <mxGeometry relative="1" as="geometry">
            <Array as="points">
              <mxPoint x="540" y="200" />
              <mxPoint x="540" y="200" />
            </Array>
          </mxGeometry>
        </mxCell>
        <mxCell id="DqxcN8GwO106yfGj2cxF-69" value="apagar?" style="rhombus;whiteSpace=wrap;html=1;" parent="1" vertex="1">
          <mxGeometry x="500" y="110" width="80" height="80" as="geometry" />
        </mxCell>
        <mxCell id="DqxcN8GwO106yfGj2cxF-76" value="sim" style="edgeStyle=orthogonalEdgeStyle;rounded=0;orthogonalLoop=1;jettySize=auto;html=1;" parent="1" source="DqxcN8GwO106yfGj2cxF-73" target="DqxcN8GwO106yfGj2cxF-75" edge="1">
          <mxGeometry relative="1" as="geometry" />
        </mxCell>
        <mxCell id="DqxcN8GwO106yfGj2cxF-73" value="atualizar?" style="rhombus;whiteSpace=wrap;html=1;" parent="1" vertex="1">
          <mxGeometry x="620" y="110" width="80" height="80" as="geometry" />
        </mxCell>
        <mxCell id="I3Eb_-N1sQP1QvbI4rdD-2" value="não" style="edgeStyle=orthogonalEdgeStyle;rounded=0;orthogonalLoop=1;jettySize=auto;html=1;entryX=1;entryY=0.5;entryDx=0;entryDy=0;" edge="1" parent="1" source="DqxcN8GwO106yfGj2cxF-75" target="DqxcN8GwO106yfGj2cxF-73">
          <mxGeometry relative="1" as="geometry">
            <mxPoint x="730" y="270" as="targetPoint" />
            <Array as="points">
              <mxPoint x="730" y="255" />
              <mxPoint x="730" y="150" />
            </Array>
          </mxGeometry>
        </mxCell>
        <mxCell id="I3Eb_-N1sQP1QvbI4rdD-9" value="sim" style="edgeStyle=orthogonalEdgeStyle;rounded=0;orthogonalLoop=1;jettySize=auto;html=1;" edge="1" parent="1" source="DqxcN8GwO106yfGj2cxF-75" target="I3Eb_-N1sQP1QvbI4rdD-8">
          <mxGeometry relative="1" as="geometry">
            <Array as="points">
              <mxPoint x="660" y="310" />
              <mxPoint x="660" y="310" />
            </Array>
          </mxGeometry>
        </mxCell>
        <mxCell id="DqxcN8GwO106yfGj2cxF-75" value="dados válidos?" style="rhombus;whiteSpace=wrap;html=1;" parent="1" vertex="1">
          <mxGeometry x="620" y="215" width="80" height="80" as="geometry" />
        </mxCell>
        <mxCell id="I3Eb_-N1sQP1QvbI4rdD-5" value="não" style="edgeStyle=orthogonalEdgeStyle;rounded=0;orthogonalLoop=1;jettySize=auto;html=1;entryX=0.5;entryY=1;entryDx=0;entryDy=0;" edge="1" parent="1" source="I3Eb_-N1sQP1QvbI4rdD-3" target="DqxcN8GwO106yfGj2cxF-63">
          <mxGeometry relative="1" as="geometry" />
        </mxCell>
        <mxCell id="I3Eb_-N1sQP1QvbI4rdD-42" value="" style="edgeStyle=orthogonalEdgeStyle;rounded=0;orthogonalLoop=1;jettySize=auto;html=1;" edge="1" parent="1" source="I3Eb_-N1sQP1QvbI4rdD-3" target="I3Eb_-N1sQP1QvbI4rdD-6">
          <mxGeometry relative="1" as="geometry" />
        </mxCell>
        <mxCell id="I3Eb_-N1sQP1QvbI4rdD-43" value="" style="edgeStyle=orthogonalEdgeStyle;rounded=0;orthogonalLoop=1;jettySize=auto;html=1;" edge="1" parent="1" source="I3Eb_-N1sQP1QvbI4rdD-3" target="I3Eb_-N1sQP1QvbI4rdD-6">
          <mxGeometry relative="1" as="geometry" />
        </mxCell>
        <mxCell id="I3Eb_-N1sQP1QvbI4rdD-3" value="confirmação?" style="rhombus;whiteSpace=wrap;html=1;" vertex="1" parent="1">
          <mxGeometry x="500" y="210" width="80" height="80" as="geometry" />
        </mxCell>
        <mxCell id="I3Eb_-N1sQP1QvbI4rdD-7" style="edgeStyle=orthogonalEdgeStyle;rounded=0;orthogonalLoop=1;jettySize=auto;html=1;entryX=1;entryY=1;entryDx=0;entryDy=0;" edge="1" parent="1" source="I3Eb_-N1sQP1QvbI4rdD-6" target="DqxcN8GwO106yfGj2cxF-51">
          <mxGeometry relative="1" as="geometry">
            <Array as="points">
              <mxPoint x="370" y="335" />
              <mxPoint x="370" y="190" />
              <mxPoint x="125" y="190" />
            </Array>
          </mxGeometry>
        </mxCell>
        <mxCell id="I3Eb_-N1sQP1QvbI4rdD-6" value="apagar cliente&amp;nbsp;" style="rounded=0;whiteSpace=wrap;html=1;" vertex="1" parent="1">
          <mxGeometry x="490" y="310" width="100" height="50" as="geometry" />
        </mxCell>
        <mxCell id="I3Eb_-N1sQP1QvbI4rdD-10" style="edgeStyle=orthogonalEdgeStyle;rounded=0;orthogonalLoop=1;jettySize=auto;html=1;entryX=1;entryY=1;entryDx=0;entryDy=0;" edge="1" parent="1" source="I3Eb_-N1sQP1QvbI4rdD-8" target="DqxcN8GwO106yfGj2cxF-51">
          <mxGeometry relative="1" as="geometry">
            <Array as="points">
              <mxPoint x="360" y="370" />
              <mxPoint x="360" y="210" />
              <mxPoint x="125" y="210" />
            </Array>
          </mxGeometry>
        </mxCell>
        <mxCell id="I3Eb_-N1sQP1QvbI4rdD-12" value="" style="edgeStyle=orthogonalEdgeStyle;rounded=0;orthogonalLoop=1;jettySize=auto;html=1;" edge="1" parent="1" source="I3Eb_-N1sQP1QvbI4rdD-8" target="I3Eb_-N1sQP1QvbI4rdD-11">
          <mxGeometry relative="1" as="geometry" />
        </mxCell>
        <mxCell id="I3Eb_-N1sQP1QvbI4rdD-8" value="cadastro atualizado" style="rounded=0;whiteSpace=wrap;html=1;" vertex="1" parent="1">
          <mxGeometry x="605" y="335" width="110" height="50" as="geometry" />
        </mxCell>
        <mxCell id="I3Eb_-N1sQP1QvbI4rdD-11" value="fim" style="ellipse;whiteSpace=wrap;html=1;" vertex="1" parent="1">
          <mxGeometry x="606.25" y="430" width="107.5" height="57.5" as="geometry" />
        </mxCell>
      </root>
    </mxGraphModel>
  </diagram>
  <diagram id="lIQ1qETOgJaS3VpZxJ2W" name="Página-2">
    <mxGraphModel dx="1434" dy="782" grid="1" gridSize="10" guides="1" tooltips="1" connect="1" arrows="1" fold="1" page="1" pageScale="1" pageWidth="827" pageHeight="1169" math="0" shadow="0">
      <root>
        <mxCell id="0" />
        <mxCell id="1" parent="0" />
        <mxCell id="EA676hMaUVOyt8Dl_54U-35" value="" style="edgeStyle=orthogonalEdgeStyle;rounded=0;orthogonalLoop=1;jettySize=auto;html=1;" edge="1" parent="1" source="EA676hMaUVOyt8Dl_54U-36" target="EA676hMaUVOyt8Dl_54U-39">
          <mxGeometry relative="1" as="geometry" />
        </mxCell>
        <mxCell id="EA676hMaUVOyt8Dl_54U-36" value="início" style="ellipse;whiteSpace=wrap;html=1;" vertex="1" parent="1">
          <mxGeometry x="75" y="35" width="120" height="65" as="geometry" />
        </mxCell>
        <mxCell id="EA676hMaUVOyt8Dl_54U-37" value="não" style="edgeStyle=orthogonalEdgeStyle;rounded=0;orthogonalLoop=1;jettySize=auto;html=1;" edge="1" parent="1" source="EA676hMaUVOyt8Dl_54U-39" target="EA676hMaUVOyt8Dl_54U-41">
          <mxGeometry relative="1" as="geometry" />
        </mxCell>
        <mxCell id="EA676hMaUVOyt8Dl_54U-38" value="sim" style="edgeStyle=orthogonalEdgeStyle;rounded=0;orthogonalLoop=1;jettySize=auto;html=1;" edge="1" parent="1" source="EA676hMaUVOyt8Dl_54U-39" target="EA676hMaUVOyt8Dl_54U-48">
          <mxGeometry relative="1" as="geometry" />
        </mxCell>
        <mxCell id="EA676hMaUVOyt8Dl_54U-39" value="fornecedor cadastrado" style="rhombus;whiteSpace=wrap;html=1;" vertex="1" parent="1">
          <mxGeometry x="95" y="140" width="80" height="80" as="geometry" />
        </mxCell>
        <mxCell id="EA676hMaUVOyt8Dl_54U-40" value="" style="edgeStyle=orthogonalEdgeStyle;rounded=0;orthogonalLoop=1;jettySize=auto;html=1;" edge="1" parent="1" source="EA676hMaUVOyt8Dl_54U-41" target="EA676hMaUVOyt8Dl_54U-46">
          <mxGeometry relative="1" as="geometry" />
        </mxCell>
        <mxCell id="EA676hMaUVOyt8Dl_54U-41" value="cadastrar fornecedor" style="rounded=0;whiteSpace=wrap;html=1;" vertex="1" parent="1">
          <mxGeometry x="80" y="250" width="110" height="50" as="geometry" />
        </mxCell>
        <mxCell id="EA676hMaUVOyt8Dl_54U-42" style="edgeStyle=orthogonalEdgeStyle;rounded=0;orthogonalLoop=1;jettySize=auto;html=1;entryX=0;entryY=0.5;entryDx=0;entryDy=0;" edge="1" parent="1" source="EA676hMaUVOyt8Dl_54U-43" target="EA676hMaUVOyt8Dl_54U-39">
          <mxGeometry relative="1" as="geometry">
            <Array as="points">
              <mxPoint x="55" y="465" />
              <mxPoint x="55" y="180" />
            </Array>
          </mxGeometry>
        </mxCell>
        <mxCell id="EA676hMaUVOyt8Dl_54U-43" value="cadastro realizado" style="rounded=0;whiteSpace=wrap;html=1;" vertex="1" parent="1">
          <mxGeometry x="75" y="440" width="120" height="50" as="geometry" />
        </mxCell>
        <mxCell id="EA676hMaUVOyt8Dl_54U-44" value="sim" style="edgeStyle=orthogonalEdgeStyle;rounded=0;orthogonalLoop=1;jettySize=auto;html=1;" edge="1" parent="1" source="EA676hMaUVOyt8Dl_54U-46" target="EA676hMaUVOyt8Dl_54U-43">
          <mxGeometry relative="1" as="geometry" />
        </mxCell>
        <mxCell id="EA676hMaUVOyt8Dl_54U-45" value="não" style="edgeStyle=orthogonalEdgeStyle;rounded=0;orthogonalLoop=1;jettySize=auto;html=1;" edge="1" parent="1" source="EA676hMaUVOyt8Dl_54U-46" target="EA676hMaUVOyt8Dl_54U-67">
          <mxGeometry relative="1" as="geometry" />
        </mxCell>
        <mxCell id="EA676hMaUVOyt8Dl_54U-46" value="dados válidos?" style="rhombus;whiteSpace=wrap;html=1;" vertex="1" parent="1">
          <mxGeometry x="95" y="330" width="80" height="80" as="geometry" />
        </mxCell>
        <mxCell id="EA676hMaUVOyt8Dl_54U-47" value="" style="edgeStyle=orthogonalEdgeStyle;rounded=0;orthogonalLoop=1;jettySize=auto;html=1;" edge="1" parent="1" source="EA676hMaUVOyt8Dl_54U-48" target="EA676hMaUVOyt8Dl_54U-51">
          <mxGeometry relative="1" as="geometry" />
        </mxCell>
        <mxCell id="EA676hMaUVOyt8Dl_54U-48" value="buscar fornecedor&amp;nbsp;" style="rounded=0;whiteSpace=wrap;html=1;" vertex="1" parent="1">
          <mxGeometry x="210" y="155" width="112.5" height="50" as="geometry" />
        </mxCell>
        <mxCell id="EA676hMaUVOyt8Dl_54U-49" value="sim" style="edgeStyle=orthogonalEdgeStyle;rounded=0;orthogonalLoop=1;jettySize=auto;html=1;" edge="1" parent="1" source="EA676hMaUVOyt8Dl_54U-51" target="EA676hMaUVOyt8Dl_54U-54">
          <mxGeometry relative="1" as="geometry" />
        </mxCell>
        <mxCell id="EA676hMaUVOyt8Dl_54U-50" value="não" style="edgeStyle=orthogonalEdgeStyle;rounded=0;orthogonalLoop=1;jettySize=auto;html=1;entryX=0.5;entryY=0;entryDx=0;entryDy=0;" edge="1" parent="1" source="EA676hMaUVOyt8Dl_54U-51" target="EA676hMaUVOyt8Dl_54U-48">
          <mxGeometry relative="1" as="geometry">
            <Array as="points">
              <mxPoint x="400" y="135" />
              <mxPoint x="266" y="135" />
            </Array>
          </mxGeometry>
        </mxCell>
        <mxCell id="EA676hMaUVOyt8Dl_54U-51" value="fornecedor encontrado" style="rhombus;whiteSpace=wrap;html=1;" vertex="1" parent="1">
          <mxGeometry x="360" y="140" width="80" height="80" as="geometry" />
        </mxCell>
        <mxCell id="EA676hMaUVOyt8Dl_54U-52" value="não" style="edgeStyle=orthogonalEdgeStyle;rounded=0;orthogonalLoop=1;jettySize=auto;html=1;" edge="1" parent="1" source="EA676hMaUVOyt8Dl_54U-54" target="EA676hMaUVOyt8Dl_54U-56">
          <mxGeometry relative="1" as="geometry" />
        </mxCell>
        <mxCell id="EA676hMaUVOyt8Dl_54U-53" value="sim" style="edgeStyle=orthogonalEdgeStyle;rounded=0;orthogonalLoop=1;jettySize=auto;html=1;" edge="1" parent="1" source="EA676hMaUVOyt8Dl_54U-54" target="EA676hMaUVOyt8Dl_54U-65">
          <mxGeometry relative="1" as="geometry" />
        </mxCell>
        <mxCell id="EA676hMaUVOyt8Dl_54U-54" value="apagar?" style="rhombus;whiteSpace=wrap;html=1;" vertex="1" parent="1">
          <mxGeometry x="470" y="140" width="80" height="80" as="geometry" />
        </mxCell>
        <mxCell id="EA676hMaUVOyt8Dl_54U-55" value="sim" style="edgeStyle=orthogonalEdgeStyle;rounded=0;orthogonalLoop=1;jettySize=auto;html=1;" edge="1" parent="1" source="EA676hMaUVOyt8Dl_54U-56" target="EA676hMaUVOyt8Dl_54U-58">
          <mxGeometry relative="1" as="geometry" />
        </mxCell>
        <mxCell id="EA676hMaUVOyt8Dl_54U-56" value="atualizar?" style="rhombus;whiteSpace=wrap;html=1;" vertex="1" parent="1">
          <mxGeometry x="580" y="140" width="80" height="80" as="geometry" />
        </mxCell>
        <mxCell id="EA676hMaUVOyt8Dl_54U-57" value="sim" style="edgeStyle=orthogonalEdgeStyle;rounded=0;orthogonalLoop=1;jettySize=auto;html=1;" edge="1" parent="1" source="EA676hMaUVOyt8Dl_54U-58" target="EA676hMaUVOyt8Dl_54U-60">
          <mxGeometry relative="1" as="geometry" />
        </mxCell>
        <mxCell id="EA676hMaUVOyt8Dl_54U-58" value="dados válidos?" style="rhombus;whiteSpace=wrap;html=1;" vertex="1" parent="1">
          <mxGeometry x="580" y="250" width="80" height="80" as="geometry" />
        </mxCell>
        <mxCell id="EA676hMaUVOyt8Dl_54U-59" value="" style="edgeStyle=orthogonalEdgeStyle;rounded=0;orthogonalLoop=1;jettySize=auto;html=1;" edge="1" parent="1" source="EA676hMaUVOyt8Dl_54U-60">
          <mxGeometry relative="1" as="geometry">
            <mxPoint x="620" y="500" as="targetPoint" />
          </mxGeometry>
        </mxCell>
        <mxCell id="EA676hMaUVOyt8Dl_54U-60" value="cadastro atualizado" style="rounded=0;whiteSpace=wrap;html=1;" vertex="1" parent="1">
          <mxGeometry x="565" y="420" width="110" height="50" as="geometry" />
        </mxCell>
        <mxCell id="EA676hMaUVOyt8Dl_54U-61" style="edgeStyle=orthogonalEdgeStyle;rounded=0;orthogonalLoop=1;jettySize=auto;html=1;entryX=0.613;entryY=0.913;entryDx=0;entryDy=0;entryPerimeter=0;exitX=0;exitY=0.5;exitDx=0;exitDy=0;" edge="1" parent="1" source="EA676hMaUVOyt8Dl_54U-62" target="EA676hMaUVOyt8Dl_54U-39">
          <mxGeometry relative="1" as="geometry">
            <mxPoint x="160" y="220" as="targetPoint" />
            <mxPoint x="460" y="430" as="sourcePoint" />
            <Array as="points">
              <mxPoint x="460" y="400" />
              <mxPoint x="430" y="400" />
              <mxPoint x="430" y="290" />
              <mxPoint x="220" y="290" />
              <mxPoint x="220" y="230" />
              <mxPoint x="144" y="230" />
            </Array>
          </mxGeometry>
        </mxCell>
        <mxCell id="EA676hMaUVOyt8Dl_54U-62" value="apagar fornecedor" style="rounded=0;whiteSpace=wrap;html=1;" vertex="1" parent="1">
          <mxGeometry x="460" y="370" width="100" height="50" as="geometry" />
        </mxCell>
        <mxCell id="EA676hMaUVOyt8Dl_54U-63" value="" style="edgeStyle=orthogonalEdgeStyle;rounded=0;orthogonalLoop=1;jettySize=auto;html=1;" edge="1" parent="1" source="EA676hMaUVOyt8Dl_54U-65" target="EA676hMaUVOyt8Dl_54U-62">
          <mxGeometry relative="1" as="geometry" />
        </mxCell>
        <mxCell id="EA676hMaUVOyt8Dl_54U-64" value="não" style="edgeStyle=orthogonalEdgeStyle;rounded=0;orthogonalLoop=1;jettySize=auto;html=1;entryX=0.5;entryY=1;entryDx=0;entryDy=0;" edge="1" parent="1" source="EA676hMaUVOyt8Dl_54U-65" target="EA676hMaUVOyt8Dl_54U-51">
          <mxGeometry relative="1" as="geometry" />
        </mxCell>
        <mxCell id="EA676hMaUVOyt8Dl_54U-65" value="confirmação?" style="rhombus;whiteSpace=wrap;html=1;" vertex="1" parent="1">
          <mxGeometry x="470" y="240" width="80" height="80" as="geometry" />
        </mxCell>
        <mxCell id="EA676hMaUVOyt8Dl_54U-66" value="fim" style="ellipse;whiteSpace=wrap;html=1;" vertex="1" parent="1">
          <mxGeometry x="567.5" y="498" width="105" height="60" as="geometry" />
        </mxCell>
        <mxCell id="EA676hMaUVOyt8Dl_54U-67" value="mostrar erro&amp;nbsp;" style="rounded=0;whiteSpace=wrap;html=1;" vertex="1" parent="1">
          <mxGeometry x="212.5" y="345" width="110" height="50" as="geometry" />
        </mxCell>
        <mxCell id="EA676hMaUVOyt8Dl_54U-68" style="edgeStyle=orthogonalEdgeStyle;rounded=0;orthogonalLoop=1;jettySize=auto;html=1;entryX=0.838;entryY=0.725;entryDx=0;entryDy=0;entryPerimeter=0;" edge="1" parent="1" source="EA676hMaUVOyt8Dl_54U-60" target="EA676hMaUVOyt8Dl_54U-39">
          <mxGeometry relative="1" as="geometry">
            <Array as="points">
              <mxPoint x="360" y="445" />
              <mxPoint x="360" y="220" />
              <mxPoint x="162" y="220" />
            </Array>
          </mxGeometry>
        </mxCell>
      </root>
    </mxGraphModel>
  </diagram>
  <diagram id="icA_B1dYd6gmF1E8ug1H" name="Página-3">
    <mxGraphModel dx="1434" dy="782" grid="1" gridSize="10" guides="1" tooltips="1" connect="1" arrows="1" fold="1" page="1" pageScale="1" pageWidth="827" pageHeight="1169" math="0" shadow="0">
      <root>
        <mxCell id="0" />
        <mxCell id="1" parent="0" />
        <mxCell id="RGY1yuRUCr4ynuzuhyVD-1" value="" style="edgeStyle=orthogonalEdgeStyle;rounded=0;orthogonalLoop=1;jettySize=auto;html=1;" edge="1" parent="1" source="RGY1yuRUCr4ynuzuhyVD-2" target="RGY1yuRUCr4ynuzuhyVD-4">
          <mxGeometry relative="1" as="geometry" />
        </mxCell>
        <mxCell id="RGY1yuRUCr4ynuzuhyVD-2" value="início" style="ellipse;whiteSpace=wrap;html=1;" vertex="1" parent="1">
          <mxGeometry x="67.5" y="24" width="110" height="60" as="geometry" />
        </mxCell>
        <mxCell id="RGY1yuRUCr4ynuzuhyVD-3" value="" style="edgeStyle=orthogonalEdgeStyle;rounded=0;orthogonalLoop=1;jettySize=auto;html=1;" edge="1" parent="1" source="RGY1yuRUCr4ynuzuhyVD-4" target="RGY1yuRUCr4ynuzuhyVD-6">
          <mxGeometry relative="1" as="geometry" />
        </mxCell>
        <mxCell id="RGY1yuRUCr4ynuzuhyVD-4" value="estoque&amp;nbsp;" style="rounded=0;whiteSpace=wrap;html=1;" vertex="1" parent="1">
          <mxGeometry x="67.5" y="124" width="110" height="50" as="geometry" />
        </mxCell>
        <mxCell id="RGY1yuRUCr4ynuzuhyVD-5" value="" style="edgeStyle=orthogonalEdgeStyle;rounded=0;orthogonalLoop=1;jettySize=auto;html=1;" edge="1" parent="1" source="RGY1yuRUCr4ynuzuhyVD-6" target="RGY1yuRUCr4ynuzuhyVD-9">
          <mxGeometry relative="1" as="geometry" />
        </mxCell>
        <mxCell id="RGY1yuRUCr4ynuzuhyVD-6" value="buscar estoque&amp;nbsp;" style="rounded=0;whiteSpace=wrap;html=1;" vertex="1" parent="1">
          <mxGeometry x="67.5" y="214" width="110" height="50" as="geometry" />
        </mxCell>
        <mxCell id="RGY1yuRUCr4ynuzuhyVD-7" value="sim" style="edgeStyle=orthogonalEdgeStyle;rounded=0;orthogonalLoop=1;jettySize=auto;html=1;" edge="1" parent="1" source="RGY1yuRUCr4ynuzuhyVD-9" target="RGY1yuRUCr4ynuzuhyVD-11">
          <mxGeometry relative="1" as="geometry" />
        </mxCell>
        <mxCell id="RGY1yuRUCr4ynuzuhyVD-9" value="possui cadastro?" style="rhombus;whiteSpace=wrap;html=1;" vertex="1" parent="1">
          <mxGeometry x="205" y="199" width="80" height="80" as="geometry" />
        </mxCell>
        <mxCell id="RGY1yuRUCr4ynuzuhyVD-10" value="" style="edgeStyle=orthogonalEdgeStyle;rounded=0;orthogonalLoop=1;jettySize=auto;html=1;" edge="1" parent="1" source="RGY1yuRUCr4ynuzuhyVD-11" target="RGY1yuRUCr4ynuzuhyVD-12">
          <mxGeometry relative="1" as="geometry" />
        </mxCell>
        <mxCell id="RGY1yuRUCr4ynuzuhyVD-11" value="cadastrar estoque&amp;nbsp;" style="rounded=0;whiteSpace=wrap;html=1;" vertex="1" parent="1">
          <mxGeometry x="190" y="334" width="116.5" height="50" as="geometry" />
        </mxCell>
        <mxCell id="RGY1yuRUCr4ynuzuhyVD-12" value="é válido?" style="rhombus;whiteSpace=wrap;html=1;" vertex="1" parent="1">
          <mxGeometry x="340" y="319" width="80" height="80" as="geometry" />
        </mxCell>
      </root>
    </mxGraphModel>
  </diagram>
  <diagram id="LFSaVql5OYWhuBEmUT0U" name="Página-4">
    <mxGraphModel dx="1434" dy="782" grid="1" gridSize="10" guides="1" tooltips="1" connect="1" arrows="1" fold="1" page="1" pageScale="1" pageWidth="827" pageHeight="1169" math="0" shadow="0">
      <root>
        <mxCell id="0" />
        <mxCell id="1" parent="0" />
        <mxCell id="I8tuX_kgQduZuLbsErg5-8" value="" style="shape=ext;double=1;rounded=0;whiteSpace=wrap;html=1;" vertex="1" parent="1">
          <mxGeometry x="200" y="100" width="450" height="800" as="geometry" />
        </mxCell>
        <mxCell id="I8tuX_kgQduZuLbsErg5-10" value="Cadastro do Cliente" style="shape=ext;double=1;rounded=0;whiteSpace=wrap;html=1;" vertex="1" parent="1">
          <mxGeometry x="355" y="120" width="140" height="40" as="geometry" />
        </mxCell>
        <mxCell id="I8tuX_kgQduZuLbsErg5-11" value="Nome:&amp;nbsp; &amp;nbsp; &amp;nbsp; &amp;nbsp; &amp;nbsp; &amp;nbsp; &amp;nbsp; &amp;nbsp; &amp;nbsp; &amp;nbsp; &amp;nbsp; &amp;nbsp; &amp;nbsp; &amp;nbsp; &amp;nbsp; &amp;nbsp; &amp;nbsp; &amp;nbsp; &amp;nbsp; &amp;nbsp; &amp;nbsp; &amp;nbsp; &amp;nbsp; &amp;nbsp; &amp;nbsp; &amp;nbsp; &amp;nbsp; &amp;nbsp; &amp;nbsp; &amp;nbsp; &amp;nbsp; &amp;nbsp; &amp;nbsp; &amp;nbsp; &amp;nbsp; &amp;nbsp; &amp;nbsp; &amp;nbsp; &amp;nbsp; &amp;nbsp; &amp;nbsp; &amp;nbsp; &amp;nbsp; &amp;nbsp; &amp;nbsp; &amp;nbsp; &amp;nbsp; &amp;nbsp; &amp;nbsp; &amp;nbsp; &amp;nbsp; &amp;nbsp; &amp;nbsp; &amp;nbsp;" style="shape=ext;double=1;rounded=0;whiteSpace=wrap;html=1;" vertex="1" parent="1">
          <mxGeometry x="220" y="180" width="410" height="30" as="geometry" />
        </mxCell>
        <mxCell id="I8tuX_kgQduZuLbsErg5-87" value="Número:&amp;nbsp; &amp;nbsp; &amp;nbsp; &amp;nbsp; &amp;nbsp; &amp;nbsp; &amp;nbsp; &amp;nbsp; &amp;nbsp; &amp;nbsp;&amp;nbsp;" style="shape=ext;double=1;rounded=0;whiteSpace=wrap;html=1;" vertex="1" parent="1">
          <mxGeometry x="220" y="230" width="410" height="30" as="geometry" />
        </mxCell>
      </root>
    </mxGraphModel>
  </diagram>
</mxfile>
